<svg width="165" height="35" viewBox="0 0 165 35" fill="none" xmlns="http://www.w3.org/2000/svg">
<path d="M157.298 28.0817C155.605 28.0817 153.912 28.8067 152.702 29.7733C150.767 25.6651 144.72 22.7651 137.705 22.7651C133.351 22.7651 129.238 23.9734 126.336 25.6651C124.4 22.0401 120.772 19.6235 116.418 19.6235C113.273 19.6235 110.612 20.8318 108.677 22.7651C104.565 16.7236 96.3405 12.6153 86.6646 12.6153C79.8915 12.6153 73.844 14.5486 69.4899 17.9319C65.8614 8.02377 56.1856 0.773926 45.0583 0.773926C33.9311 0.773926 24.2551 7.78211 20.6267 17.6902C18.6915 16.7236 16.7563 16.2403 14.5792 16.2403C6.59665 16.2403 0.0654297 22.7651 0.0654297 30.7399C0.0654297 32.1899 0.307356 33.3982 0.549253 34.6065H20.143H28.6094H62.9586H70.2155H106.258H111.096H122.949H127.545H151.251H153.67H164.797V34.3649C164.072 30.9816 161.169 28.0817 157.298 28.0817Z" fill="#F4EBFF"/>
</svg>
