<svg width="93" height="27" viewBox="0 0 93 27" fill="none" xmlns="http://www.w3.org/2000/svg">
<path d="M83.3198 15.8653C81.1427 15.8653 78.9657 16.8319 77.5143 18.0402C76.3048 8.37379 68.0803 0.640625 57.9206 0.640625C49.2123 0.640625 41.9555 6.4405 39.2946 14.1737C36.8756 10.0654 32.5215 7.40714 27.4417 7.40714C20.9104 7.40714 15.5887 11.9987 14.1373 17.7986C12.686 16.5903 10.9927 15.8653 9.05749 15.8653C4.46145 15.8653 0.833008 19.4902 0.833008 24.0818C0.833008 25.0484 1.07486 26.0151 1.31676 26.74H15.3468H17.0401H39.7783H40.2622H75.3372H76.7886H92.0281C92.27 26.0151 92.5119 25.0484 92.5119 24.0818C92.0281 19.7319 88.1577 15.8653 83.3198 15.8653Z" fill="#F4EBFF"/>
</svg>
